<svg width="1073" height="635" viewBox="0 0 1073 635" fill="none" xmlns="http://www.w3.org/2000/svg">
<g opacity="0.0636858">
<mask id="mask0_2230_45" style="mask-type:luminance" maskUnits="userSpaceOnUse" x="64" y="-136" width="1009" height="1258">
<path fill-rule="evenodd" clip-rule="evenodd" d="M64.9739 -135.5H1072.99V1121.24H64.9739V-135.5Z" fill="white"/>
</mask>
<g mask="url(#mask0_2230_45)">
<path fill-rule="evenodd" clip-rule="evenodd" d="M1071.16 387.11C1071.47 378.147 1068.14 369.733 1062.24 364.608L495.041 -128.548C490.471 -132.525 484.929 -134.043 479.439 -132.826C473.953 -131.605 469.173 -127.796 465.988 -122.094L70.5423 584.91C68.2743 588.965 66.9831 593.712 66.8111 598.63C66.4983 607.595 69.8327 616.005 75.7271 621.136L642.924 1114.29C647.499 1118.27 653.036 1119.79 658.529 1118.57C664.014 1117.34 668.795 1113.54 671.982 1107.84L1067.42 400.835C1069.7 396.778 1070.98 392.029 1071.16 387.11M64.9959 598.532C65.1847 593.182 66.5887 588.026 69.0551 583.616L464.496 -123.389C467.962 -129.585 473.156 -133.727 479.122 -135.054C485.089 -136.378 491.11 -134.727 496.082 -130.406L1063.28 362.752C1069.69 368.326 1073.31 377.468 1072.97 387.212C1072.78 392.56 1071.38 397.717 1068.91 402.13L673.47 1109.13C670.006 1115.33 664.814 1119.47 658.847 1120.79C652.882 1122.12 646.859 1120.47 641.886 1116.14L74.6911 622.988C68.2815 617.418 64.6551 608.274 64.9959 598.532" fill="#DADADA"/>
</g>
<path fill-rule="evenodd" clip-rule="evenodd" d="M1044.81 379.979C1045.11 371.38 1041.94 363.258 1036.34 358.253L488.387 -131.187C483.977 -135.131 478.597 -136.695 473.241 -135.594C467.884 -134.491 463.195 -130.854 460.033 -125.354L67.5674 557.654C65.265 561.665 63.9562 566.375 63.785 571.278C63.4842 579.879 66.6506 588.002 72.257 593.002L620.206 1082.45C629.319 1090.58 642.036 1087.97 648.559 1076.62L1041.02 393.604C1043.33 389.595 1044.64 384.881 1044.81 379.979M61.9722 571.176C62.157 565.837 63.5834 560.704 66.093 556.336L458.559 -126.67C462.002 -132.663 467.111 -136.623 472.944 -137.825C478.778 -139.025 484.638 -137.321 489.445 -133.028L1037.39 356.415C1043.5 361.867 1046.95 370.711 1046.62 380.077C1046.43 385.42 1045.01 390.556 1042.5 394.922L650.033 1077.93C642.928 1090.3 629.069 1093.15 619.148 1084.29L71.1986 594.844C65.0946 589.393 61.6434 580.546 61.9722 571.176" fill="#DADADA"/>
<path fill-rule="evenodd" clip-rule="evenodd" d="M1018.46 372.845C1018.75 364.612 1015.75 356.779 1010.44 351.896L481.734 -133.828C472.955 -141.893 460.551 -139.552 454.081 -128.61L64.5949 530.402C62.2541 534.358 60.9261 539.039 60.7549 543.931C60.4669 552.164 63.4685 559.994 68.7837 564.875L597.481 1050.6C601.738 1054.51 606.954 1056.12 612.178 1055.13C617.404 1054.15 622.006 1050.68 625.139 1045.39L1014.63 386.37C1016.97 382.415 1018.29 377.737 1018.46 372.845M58.9421 543.827C59.1293 538.486 60.5765 533.38 63.1317 529.062L452.621 -129.952C459.683 -141.9 473.225 -144.455 482.809 -135.65L1011.51 350.074C1017.31 355.408 1020.59 363.959 1020.28 372.946C1020.09 378.287 1018.64 383.393 1016.09 387.715L626.6 1046.73C623.177 1052.51 618.156 1056.3 612.451 1057.37C606.749 1058.45 601.052 1056.69 596.41 1052.43L67.7077 566.699C61.9061 561.367 58.6277 552.819 58.9421 543.827" fill="#DADADA"/>
<path fill-rule="evenodd" clip-rule="evenodd" d="M992.125 365.711C992.398 357.838 989.56 350.3 984.533 345.541L475.079 -136.468C470.984 -140.341 465.928 -141.995 460.837 -141.126C455.749 -140.258 451.234 -136.969 448.13 -131.866L61.615 503.153C59.2382 507.063 57.8902 511.703 57.7198 516.582C57.4446 524.453 60.2814 531.991 65.3102 536.75L574.768 1018.76C583.213 1026.75 595.302 1024.69 601.714 1014.16L988.23 379.141C990.607 375.234 991.953 370.591 992.125 365.711M55.9086 516.48C56.0934 511.14 57.5686 506.056 60.171 501.784L446.683 -133.234C450.083 -138.818 455.022 -142.416 460.591 -143.369C466.161 -144.319 471.694 -142.508 476.176 -138.271L985.629 343.74C991.133 348.946 994.237 357.196 993.937 365.811C993.748 371.151 992.279 376.235 989.674 380.51L603.161 1015.53C596.143 1027.05 582.914 1029.31 573.669 1020.56L64.2158 538.55C58.7118 533.343 55.6062 525.098 55.9086 516.48" fill="#DADADA"/>
<path fill-rule="evenodd" clip-rule="evenodd" d="M965.785 358.58C966.048 351.064 963.372 343.814 958.626 339.184L468.423 -139.11C464.49 -142.946 459.594 -144.646 454.637 -143.892C449.677 -143.139 445.254 -140.025 442.177 -135.122L58.6384 475.901C56.22 479.75 54.8536 484.356 54.6832 489.227C54.42 496.742 57.0976 503.992 61.8416 508.623L552.046 986.918C555.982 990.753 560.874 992.451 565.834 991.698C570.791 990.947 575.216 987.83 578.295 982.928L961.831 371.907C964.25 368.059 965.615 363.448 965.785 358.58M52.8696 489.126C53.0584 483.781 54.5568 478.73 57.2088 474.5L440.747 -136.517C444.123 -141.895 448.979 -145.312 454.415 -146.137C459.854 -146.964 465.225 -145.101 469.542 -140.89L959.743 337.403C964.95 342.481 967.887 350.435 967.598 358.678C967.412 364.022 965.911 369.079 963.264 373.305L579.724 984.323C576.347 989.707 571.491 993.123 566.054 993.943C560.615 994.775 555.242 992.91 550.93 988.7L60.7224 510.406C55.5176 505.326 52.5824 497.371 52.8696 489.126" fill="#DADADA"/>
<path fill-rule="evenodd" clip-rule="evenodd" d="M939.454 351.448C939.704 344.288 937.189 337.33 932.724 332.831L461.766 -141.749C453.976 -149.599 442.517 -148.087 436.223 -138.377L55.6583 448.654C53.2031 452.44 51.8103 457.016 51.6399 461.877C51.3887 469.039 53.9071 475.995 58.3711 480.495L529.328 955.072C533.103 958.88 537.838 960.62 542.66 959.985C547.487 959.344 551.824 956.405 554.871 951.702L935.436 364.676C937.895 360.884 939.286 356.308 939.454 351.448M49.8279 461.779C50.0135 456.431 51.5439 451.401 54.2487 447.229L434.81 -139.799C441.733 -150.479 454.337 -152.143 462.906 -143.51L933.866 331.072C938.775 336.016 941.542 343.672 941.268 351.546C941.082 356.892 939.552 361.924 936.848 366.1L556.284 953.122C552.932 958.299 548.158 961.533 542.854 962.233C537.546 962.936 532.338 961.02 528.189 956.833L57.2311 482.255C52.3191 477.308 49.5519 469.652 49.8279 461.779" fill="#DADADA"/>
<path fill-rule="evenodd" clip-rule="evenodd" d="M913.126 344.313C913.37 337.408 911.069 330.903 906.82 326.472L455.111 -144.393C451.494 -148.158 446.923 -149.947 442.229 -149.425C437.537 -148.904 433.29 -146.135 430.269 -141.63L52.6813 421.401C50.1757 425.137 48.7621 429.672 48.5933 434.523C48.3525 441.432 50.6549 447.939 54.9029 452.368L506.613 923.234C514.075 931.012 525.216 929.773 531.452 920.471L909.038 357.441C911.543 353.707 912.958 349.168 913.126 344.313M46.7821 434.422C46.9669 429.075 48.5261 424.068 51.2877 419.947L428.875 -143.082C432.208 -148.052 436.892 -151.105 442.068 -151.678C447.243 -152.254 452.289 -150.281 456.274 -146.127L907.982 324.734C912.67 329.622 915.205 336.792 914.941 344.415C914.754 349.77 913.195 354.773 910.43 358.89L532.845 921.923C525.965 932.181 513.677 933.544 505.446 924.97L53.7381 454.109C49.0493 449.22 46.5133 442.046 46.7821 434.422" fill="#DADADA"/>
<path fill-rule="evenodd" clip-rule="evenodd" d="M886.806 337.183C887.035 330.624 884.888 324.406 880.915 320.11L448.454 -147.032C444.999 -150.768 440.586 -152.601 436.023 -152.193C431.463 -151.787 427.306 -149.193 424.311 -144.886L49.7042 394.149C47.149 397.825 45.7106 402.326 45.541 407.174C45.3114 413.731 47.4602 419.953 51.4322 424.247L483.892 891.393C487.35 895.124 491.763 896.955 496.324 896.55C500.881 896.147 505.039 893.552 508.034 889.245L882.642 350.207C885.197 346.535 886.639 342.03 886.806 337.183M43.7274 407.076C43.9146 401.713 45.509 396.732 48.3322 392.67L422.939 -146.367C426.251 -151.132 430.851 -154.002 435.895 -154.45C440.939 -154.9 445.822 -152.873 449.642 -148.744L882.1 318.4C886.499 323.151 888.87 330.032 888.62 337.282C888.431 342.642 886.84 347.624 884.017 351.693L509.405 890.723C506.097 895.491 501.495 898.36 496.453 898.811C491.409 899.255 486.526 897.232 482.707 893.101L50.2442 425.955C45.8482 421.206 43.4754 414.327 43.7274 407.076" fill="#DADADA"/>
<path fill-rule="evenodd" clip-rule="evenodd" d="M860.49 330.05C860.708 323.843 858.709 317.903 855.007 313.75L441.793 -149.681C438.5 -153.378 434.246 -155.252 429.819 -154.96C425.393 -154.67 421.32 -152.248 418.357 -148.139L46.723 366.902C44.1542 370.458 42.6486 375.05 42.4814 379.823C42.2662 386.029 44.2646 391.971 47.9646 396.12L461.177 859.555C464.47 863.248 468.724 865.125 473.155 864.836C477.578 864.544 481.65 862.123 484.617 858.017L856.248 342.973C858.818 339.416 860.325 334.823 860.49 330.05M40.6678 379.726C40.855 374.428 42.523 369.333 45.3742 365.39L417.007 -149.652C420.294 -154.208 424.812 -156.898 429.725 -157.221C434.637 -157.544 439.354 -155.461 443.01 -151.361L856.222 312.071C860.328 316.674 862.544 323.264 862.303 330.149C862.117 335.446 860.446 340.535 857.598 344.487L485.965 859.529C482.677 864.082 478.161 866.773 473.249 867.095C468.339 867.418 463.619 865.339 459.964 861.234L46.7502 397.799C42.6438 393.199 40.4294 386.608 40.6678 379.726" fill="#DADADA"/>
<path fill-rule="evenodd" clip-rule="evenodd" d="M834.184 322.917C834.388 317.055 832.537 311.396 829.103 307.388L435.138 -152.325C432.001 -155.987 427.906 -157.907 423.614 -157.729C419.319 -157.552 415.335 -155.302 412.398 -151.39L43.7425 339.654C41.1201 343.146 39.5841 347.699 39.4169 352.474C39.2129 358.337 41.0641 363.995 44.4937 368.002L438.461 827.713C444.935 835.273 455.138 834.855 461.199 826.783L829.858 335.737C832.48 332.244 834.015 327.692 834.184 322.917M37.6033 352.376C37.7905 347.062 39.5001 341.994 42.4161 338.108L411.074 -152.936C414.341 -157.289 418.771 -159.794 423.551 -159.99C428.331 -160.186 432.886 -158.052 436.378 -153.976L830.343 305.739C834.164 310.196 836.223 316.492 835.996 323.016C835.809 328.328 834.101 333.394 831.183 337.285L462.523 828.33C455.778 837.313 444.425 837.778 437.221 829.366L43.2553 369.652C39.4361 365.196 37.3769 358.895 37.6033 352.376" fill="#DADADA"/>
<path fill-rule="evenodd" clip-rule="evenodd" d="M807.879 315.784C808.071 310.266 806.366 304.885 803.196 301.028L428.48 -154.974C422.329 -162.457 412.441 -162.308 406.439 -154.642L40.7585 312.407C38.0785 315.825 36.5089 320.346 36.3433 325.118C36.1489 330.643 37.8577 336.02 41.0281 339.878L415.743 795.882C421.896 803.362 431.781 803.209 437.781 795.547L803.462 328.501C806.142 325.078 807.711 320.56 807.879 315.784M34.5313 325.017C34.7161 319.689 36.4689 314.646 39.4601 310.824L405.143 -156.225C411.843 -164.782 422.879 -164.947 429.745 -156.591L804.463 299.408C808.001 303.714 809.908 309.72 809.692 315.885C809.507 321.216 807.756 326.261 804.762 330.082L439.079 797.128C432.38 805.686 421.343 805.854 414.475 797.497L39.7625 341.494C36.2225 337.189 34.3161 331.183 34.5313 325.017" fill="#DADADA"/>
<path fill-rule="evenodd" clip-rule="evenodd" d="M781.585 308.653C781.769 303.467 780.2 298.371 777.289 294.668L421.82 -157.62C415.995 -165.029 406.424 -165.152 400.481 -157.895L37.7766 285.156C35.035 288.507 33.4302 292.985 33.2614 297.77C33.0814 302.955 34.651 308.051 37.5614 311.758L393.025 764.048C398.853 771.457 408.422 771.576 414.367 764.313L777.072 321.266C779.814 317.916 781.418 313.435 781.585 308.653M31.4486 297.67C31.6366 292.314 33.4358 287.296 36.507 283.541L399.21 -159.512C405.869 -167.642 416.59 -167.503 423.115 -159.204L778.585 293.082C781.849 297.232 783.601 302.943 783.4 308.751C783.212 314.111 781.413 319.127 778.341 322.882L415.638 765.936C408.985 774.065 398.257 773.928 391.733 765.63L36.2638 313.345C33.003 309.192 31.2462 303.477 31.4486 297.67" fill="#DADADA"/>
<path fill-rule="evenodd" clip-rule="evenodd" d="M755.3 301.522C755.472 296.596 754.081 291.899 751.378 288.296L415.157 -160.269C412.498 -163.821 408.883 -165.871 404.987 -166.036C401.088 -166.201 397.371 -164.463 394.521 -161.145L34.7948 257.911C31.9828 261.186 30.3436 265.626 30.1756 270.418C30.0036 275.343 31.394 280.04 34.0932 283.643L370.316 732.209C375.813 739.543 385.069 739.931 390.953 733.083L750.682 314.027C753.494 310.754 755.131 306.312 755.3 301.522M28.362 270.315C28.5508 264.926 30.3932 259.941 33.5508 256.261L393.282 -162.798C396.486 -166.531 400.663 -168.483 405.048 -168.296C409.43 -168.111 413.491 -165.808 416.488 -161.814L752.705 286.753C755.743 290.803 757.307 296.084 757.115 301.621C756.926 307.009 755.081 312.003 751.919 315.68L392.191 734.739C385.581 742.438 375.17 742.001 368.988 733.758L32.7684 285.187C29.7348 281.134 28.1668 275.858 28.362 270.315" fill="#DADADA"/>
<path fill-rule="evenodd" clip-rule="evenodd" d="M729.022 294.39C729.184 289.792 727.922 285.372 725.472 281.932L408.499 -162.92C403.325 -170.179 394.38 -170.842 388.558 -164.397L31.8051 230.668C28.9227 233.858 27.2435 238.259 27.0763 243.064C26.9163 247.658 28.1771 252.086 30.6283 255.524L347.601 700.377C352.774 707.638 361.716 708.301 367.543 701.851L724.292 306.789C727.176 303.598 728.856 299.193 729.022 294.39M25.2619 242.965C25.4523 237.548 27.3491 232.577 30.6027 228.976L387.353 -166.089C393.923 -173.362 404.017 -172.615 409.855 -164.424L726.83 280.431C729.594 284.31 731.019 289.302 730.837 294.489C730.647 299.911 728.751 304.878 725.5 308.481L368.747 703.55C362.175 710.817 352.08 710.073 346.241 701.879L29.2707 257.031C26.5051 253.147 25.0811 248.153 25.2619 242.965" fill="#DADADA"/>
<path fill-rule="evenodd" clip-rule="evenodd" d="M702.758 287.26C702.908 282.99 701.772 278.834 699.564 275.561L401.838 -165.574C399.492 -169.054 396.195 -171.187 392.562 -171.576C388.926 -171.967 385.386 -170.572 382.596 -167.644L28.8191 203.426C25.9031 206.483 24.1367 210.961 23.9695 215.712C23.8207 219.983 24.9527 224.136 27.1623 227.412L324.887 668.549C329.734 675.73 338.369 676.658 344.13 670.615L697.907 299.551C700.823 296.492 702.592 292.011 702.758 287.26M22.1551 215.614C22.3439 210.228 24.3471 205.156 27.6487 201.694L381.426 -169.376C384.591 -172.691 388.598 -174.275 392.717 -173.831C396.835 -173.388 400.567 -170.972 403.227 -167.031L700.95 274.106C703.454 277.815 704.738 282.521 704.57 287.357C704.383 292.741 702.379 297.816 699.075 301.283L345.298 672.348C338.77 679.195 328.99 678.142 323.499 670.005L25.7759 228.865C23.2719 225.158 21.9863 220.452 22.1551 215.614" fill="#DADADA"/>
<path fill-rule="evenodd" clip-rule="evenodd" d="M676.502 280.129C676.64 276.175 675.628 272.292 673.655 269.19L395.176 -168.228C392.984 -171.671 389.848 -173.846 386.344 -174.349C382.841 -174.853 379.392 -173.625 376.633 -170.895L25.8292 176.18C22.8316 179.146 21.0172 183.584 20.8492 188.361C20.7132 192.309 21.7236 196.193 23.6972 199.299L302.172 636.719C306.698 643.829 315.017 645.024 320.72 639.382L671.52 292.313C674.52 289.346 676.336 284.903 676.502 280.129M19.0356 188.259C19.2228 182.83 21.29 177.783 24.7036 174.406L375.502 -172.667C378.644 -175.774 382.567 -177.17 386.552 -176.597C390.536 -176.024 394.104 -173.552 396.599 -169.634L675.075 267.785C677.32 271.312 678.472 275.733 678.315 280.229C678.124 285.658 676.063 290.709 672.649 294.082L321.844 641.157C315.368 647.571 305.9 646.211 300.752 638.126L22.2748 200.709C20.0308 197.174 18.8788 192.754 19.0356 188.259" fill="#DADADA"/>
<path fill-rule="evenodd" clip-rule="evenodd" d="M650.259 273.002C650.386 269.361 649.493 265.745 647.744 262.816L388.514 -170.887C384.31 -177.918 376.303 -179.379 370.661 -174.142L22.8424 148.937C19.752 151.804 17.8832 156.203 17.716 161.002C17.5904 164.642 18.4848 168.256 20.232 171.19L279.463 604.896C283.665 611.926 291.673 613.385 297.311 608.148L645.138 285.071C648.226 282.203 650.09 277.805 650.259 273.002M15.9024 160.904C16.0936 155.418 18.2296 150.397 21.7568 147.117L369.578 -175.956C376.02 -181.94 385.169 -180.271 389.97 -172.238L649.198 261.466C651.195 264.809 652.22 268.941 652.073 273.101C651.882 278.586 649.748 283.609 646.22 286.888L298.398 609.961C291.954 615.944 282.808 614.273 278.006 606.246L18.7768 172.541C16.7792 169.194 15.7576 165.062 15.9024 160.904" fill="#DADADA"/>
<path fill-rule="evenodd" clip-rule="evenodd" d="M624.03 265.876C624.147 262.492 623.389 259.23 621.835 256.442L381.853 -173.547C377.972 -180.503 370.275 -182.226 364.693 -177.39L19.8461 121.693C16.6629 124.455 14.7397 128.81 14.5709 133.646C14.4541 137.03 15.2141 140.29 16.7693 143.076L256.748 573.07C260.629 580.03 268.325 581.751 273.908 576.911L618.757 277.831C621.94 275.071 623.861 270.71 624.03 265.876M12.7589 133.546C12.9517 128.001 15.1589 123.001 18.8125 119.834L363.657 -179.246C370.059 -184.795 378.889 -182.819 383.341 -174.84L623.323 255.15C625.107 258.348 625.98 262.089 625.842 265.973C625.649 271.521 623.445 276.52 619.796 279.689L274.943 578.772C268.543 584.321 259.712 582.344 255.26 574.365L15.2797 144.373C13.4941 141.176 12.6229 137.434 12.7589 133.546" fill="#DADADA"/>
<path fill-rule="evenodd" clip-rule="evenodd" d="M597.818 258.75C597.926 255.667 597.273 252.665 595.923 250.064L375.191 -176.212C371.628 -183.087 364.242 -185.074 358.723 -180.636L16.8521 94.4473C13.6137 97.0573 11.5777 101.483 11.4113 106.291C11.3041 109.372 11.9601 112.372 13.3081 114.973L234.038 541.254C237.6 548.127 244.986 550.112 250.505 545.672L592.378 270.588C595.615 267.982 597.647 263.557 597.818 258.75M9.59849 106.191C9.79209 100.649 12.1369 95.5503 15.8689 92.5493L357.739 -182.537C364.096 -187.653 372.61 -185.363 376.715 -177.437L597.446 248.837C599 251.834 599.754 255.296 599.63 258.848C599.438 264.387 597.094 269.489 593.359 272.488L251.489 547.574C245.132 552.688 236.618 550.402 232.514 542.478L11.7793 116.205C10.2305 113.204 9.47369 109.744 9.59849 106.191" fill="#DADADA"/>
<path fill-rule="evenodd" clip-rule="evenodd" d="M571.617 251.621C571.716 248.838 571.159 246.091 570.013 243.683L368.53 -178.877C365.284 -185.678 358.206 -187.925 352.751 -183.884L13.8573 67.2064C10.5069 69.6874 8.40369 74.0724 8.23409 78.9314C8.13649 81.7184 8.69329 84.4634 9.84129 86.8744L211.325 509.433C214.57 516.235 221.647 518.482 227.1 514.437L565.998 263.348C569.349 260.866 571.448 256.483 571.617 251.621M6.42209 78.8324C6.61889 73.2064 9.05009 68.1324 12.9277 65.2624L351.821 -185.829C358.14 -190.508 366.333 -187.906 370.086 -180.032L571.57 242.524C572.901 245.315 573.543 248.492 573.432 251.724C573.235 257.349 570.802 262.421 566.925 265.296L228.028 516.386C221.714 521.062 213.519 518.463 209.765 510.59L8.28049 88.0304C6.95169 85.2424 6.30929 82.0584 6.42209 78.8324" fill="#DADADA"/>
<path fill-rule="evenodd" clip-rule="evenodd" d="M545.438 244.502C545.526 242.002 545.065 239.509 544.099 237.298L361.864 -181.545C358.938 -188.271 352.17 -190.777 346.772 -187.13L10.8543 39.9612C7.38555 42.3082 5.21195 46.6462 5.03995 51.5692C4.95195 54.0702 5.41355 56.5622 6.37675 58.7752L188.614 477.618C191.541 484.343 198.309 486.85 203.706 483.202L539.624 256.107C543.094 253.762 545.267 249.426 545.438 244.502M3.22715 51.4722C3.42395 45.8332 6.01435 40.6632 9.99035 37.9762L345.909 -189.119C352.183 -193.359 360.058 -190.445 363.461 -182.622L545.697 236.219C546.817 238.796 547.351 241.689 547.253 244.601C547.054 250.238 544.462 255.41 540.491 258.099L204.57 485.193C198.295 489.434 190.422 486.52 187.018 478.694L4.78395 59.8542C3.66315 57.2772 3.12475 54.3802 3.22715 51.4722" fill="#DADADA"/>
<mask id="mask1_2230_45" style="mask-type:luminance" maskUnits="userSpaceOnUse" x="0" y="-195" width="522" height="651">
<path fill-rule="evenodd" clip-rule="evenodd" d="M0 -194.004H521.106V455.594H0V-194.004Z" fill="white"/>
</mask>
<g mask="url(#mask1_2230_45)">
<path fill-rule="evenodd" clip-rule="evenodd" d="M519.281 237.38C519.358 235.158 518.98 232.922 518.188 230.91L355.2 -184.217C352.593 -190.866 346.13 -193.631 340.796 -190.378L7.85156 12.7225C4.30516 14.8855 1.99796 19.2865 1.82596 24.2065C1.74836 26.4305 2.12356 28.6685 2.91476 30.6815L165.902 445.808C168.514 452.455 174.973 455.22 180.308 451.965L513.252 248.87C516.796 246.705 519.108 242.303 519.281 237.38M0.011564 24.1075C0.212364 18.3575 2.91236 13.2145 7.05156 10.6905L339.996 -192.411C346.228 -196.21 353.782 -192.982 356.833 -185.212L519.823 229.915C520.744 232.266 521.185 234.881 521.095 237.48C520.893 243.231 518.196 248.375 514.05 250.9L181.106 453.997C174.872 457.802 167.322 454.573 164.272 446.802L1.28116 31.6735C0.358764 29.3265 -0.079636 26.7075 0.011564 24.1075" fill="#DADADA"/>
</g>
</g>
</svg>
