<svg width="56" height="56" viewBox="0 0 56 56" fill="none" xmlns="http://www.w3.org/2000/svg">
<path d="M25.843 6.04122C20.8862 6.51 16.217 8.58087 12.5423 11.9404C8.86753 15.2998 6.38729 19.765 5.47699 24.6601C4.56669 29.5551 5.27588 34.6134 7.49721 39.0693C9.71854 43.5253 13.3311 47.1363 17.788 49.3557C22.2449 51.5751 27.3035 52.2821 32.1981 51.3697C37.0928 50.4573 41.5569 47.9751 44.9148 44.2989C48.2727 40.6227 50.3415 35.9527 50.8082 30.9957C51.2748 26.0387 50.1139 21.0645 47.501 16.8263L45.8181 21.6364C45.8181 21.6364 47.1651 26.5348 46.7809 30.6165C46.3966 34.6983 44.6931 38.5437 41.9281 41.5708C39.1631 44.5979 35.4872 46.6417 31.4568 47.393C27.4265 48.1443 23.2611 47.5622 19.5911 45.7347C15.9212 43.9071 12.9465 40.9338 11.1174 37.2646C9.28834 33.5955 8.70438 29.4303 9.45394 25.3996C10.2035 21.3689 12.2458 17.6922 15.2717 14.9259C18.2975 12.1596 25.0302 9.75758 25.0302 9.75758L25.843 6.04122Z" fill="#68D585"/>
<path d="M23.3332 18.6667H15.6969L10.606 41.5758L17.3939 44.9697L23.3332 18.6667Z" fill="#68D585"/>
<path d="M35.6363 10.1818H27.9999L19.5151 46.6667L27.1514 48.7879L35.6363 10.1818Z" fill="#68D585"/>
<path d="M47.5151 4.24243H39.8787L30.1211 48.3636L38.1817 46.6667L47.5151 4.24243Z" fill="#68D585"/>
</svg>
